<?xml version="1.0" standalone="no"?>
<!DOCTYPE svg PUBLIC "-//W3C//DTD SVG 20010904//EN"
 "http://www.w3.org/TR/2001/REC-SVG-20010904/DTD/svg10.dtd">
<svg version="1.0" xmlns="http://www.w3.org/2000/svg"
 width="861.000000pt" height="861.000000pt" viewBox="0 0 861.000000 861.000000"
 preserveAspectRatio="xMidYMid meet">
<metadata>
Created by potrace 1.14, written by Peter Selinger 2001-2017
</metadata>
<g transform="translate(0.000000,861.000000) scale(0.100000,-0.100000)"
fill="#000000" stroke="none">
<path d="M3710 8466 l0 -142 -895 1 -895 0 0 -142 0 -142 -750 2 c-493 1 -751
-1 -753 -8 -2 -5 -3 -145 -3 -310 l1 -300 130 -2 c72 -1 138 -2 147 -2 15 -1
17 -13 17 -98 -1 -54 -1 -117 0 -139 l1 -42 150 2 c95 1 150 -2 151 -9 1 -5 2
-905 3 -2000 l1 -1990 135 -1 c74 -1 140 -2 146 -3 7 -1 10 -170 9 -553 0
-304 1 -561 3 -571 4 -15 20 -17 153 -17 l149 0 0 -285 0 -285 150 0 150 0 0
-283 0 -284 136 1 c75 1 139 -1 143 -4 4 -3 7 -66 7 -140 l-1 -135 158 -3 157
-3 0 -144 0 -145 38 0 c20 -1 222 -2 447 -3 l410 -2 0 -130 c0 -72 3 -134 7
-140 4 -7 313 -9 900 -8 491 1 899 2 906 2 9 1 12 36 12 141 0 126 2 140 18
141 9 0 213 1 452 2 l434 2 1 140 0 140 148 0 147 -1 1 46 c1 25 1 89 1 142
l-1 97 147 3 147 3 0 283 0 282 30 1 c17 1 87 1 156 1 l125 0 0 281 0 282 144
0 145 0 0 575 0 575 150 5 150 5 0 1993 -1 1992 21 1 c11 0 80 1 153 2 126 1
132 1 133 21 0 12 0 72 0 134 l0 112 128 0 128 0 0 314 c0 223 -3 316 -11 319
-6 2 -330 3 -721 2 -390 -1 -715 0 -721 2 -7 3 -10 47 -10 129 1 69 -1 130 -4
137 -4 9 -206 12 -890 12 l-885 0 -3 142 -3 142 -614 -1 -615 0 0 -142z"/>
</g>
</svg>
