<?xml version="1.0" encoding="UTF-8"?>
<!DOCTYPE svg PUBLIC "-//W3C//DTD SVG 1.1//EN" "http://www.w3.org/Graphics/SVG/1.1/DTD/svg11.dtd">
<!-- Creator: CorelDRAW X8 -->
<svg xmlns="http://www.w3.org/2000/svg" xml:space="preserve" width="11.0236in" height="8.66142in" version="1.1" style="shape-rendering:geometricPrecision; text-rendering:geometricPrecision; image-rendering:optimizeQuality; fill-rule:evenodd; clip-rule:evenodd"
viewBox="0 0 11024 8661"
 xmlns:xlink="http://www.w3.org/1999/xlink">
 <defs>
  <style type="text/css">
   <![CDATA[
    .fil0 {fill:#D6D6D6}
   ]]>
  </style>
 </defs>
 <g id="Layer_x0020_1">
  <metadata id="CorelCorpID_0Corel-Layer"/>
  <path class="fil0" d="M20388 -7262c21,-99 3,-207 8,-309 -51,-2 -215,24 -285,-5 -74,-31 18,18 -26,-20 -227,-68 -192,-242 -332,-369l-100 -124c69,-25 183,3 218,62 48,28 28,-2 53,58 65,32 82,196 305,198 39,0 81,-4 118,-14 98,-26 56,-54 101,-145 21,-43 35,-48 53,-96 -501,-26 -729,-352 -707,-805 7,-162 73,-266 151,-374 1,-173 -59,-239 27,-424 131,-25 301,77 386,130 71,44 123,10 200,-3 411,-73 586,64 684,6 113,-67 238,-148 386,-136 39,80 57,175 50,274 -12,180 -62,83 35,225 92,133 121,330 85,526 -66,366 -300,555 -699,581 61,142 98,117 98,334 0,354 -126,693 499,273 1260,-848 670,-2855 -883,-2864 -450,-2 -812,181 -1064,402 -238,209 -439,512 -513,943 -203,1178 1088,1878 1152,1676z"/>
  <path class="fil0" d="M20388 -7262c16,-12 27,15 28,-82l-8 -247c-139,6 -176,23 -323,-5 44,38 -48,-11 26,20 70,29 234,3 285,5 -5,102 13,210 -8,309z"/>
  <path class="fil0" d="M20279 -7719c-29,-39 -39,-36 -69,0 37,38 40,30 69,0z"/>
  <path class="fil0" d="M20368 -7759c-42,-2 -26,18 -33,26 22,16 -3,12 32,15 39,4 21,-10 27,-15 -9,-18 13,-23 -26,-26z"/>
  <path class="fil0" d="M20118 -7761c-55,-11 -15,4 -30,14 26,22 1,48 59,14 -16,-30 17,-19 -29,-28z"/>
  <path class="fil0" d="M20031 -7779c-1,-44 -5,-45 -49,-51 3,45 4,47 49,51z"/>
  <path class="fil0" d="M19903 -7920c19,55 -21,47 47,46 -9,-57 10,-30 -47,-46z"/>
  <path class="fil0" d="M19851 -7955l29 3c0,-53 10,-18 -7,-46 -41,21 -8,-8 -22,43z"/>
  <path class="fil0" d="M19778 -8039c4,2 8,7 10,8 2,1 9,3 11,3 2,1 9,0 10,-3 2,-4 7,-5 10,-8 -3,-2 -8,-7 -10,-8 -82,-23 -2,-13 -31,8z"/>
 </g>
</svg>
